<svg xmlns="http://www.w3.org/2000/svg" viewBox="0 0 1600 1067" preserveAspectRatio="xMidYMax meet" role="img" aria-hidden="true">
  <g fill="#0f3b4d">
    <rect x="0" y="700" width="1600" height="367" />
  </g>
  <g fill="#f4efe7" fill-opacity="0.92">
    <rect x="90" y="520" width="64" height="180" />
    <rect x="180" y="440" width="46" height="260" />
    <rect x="250" y="500" width="58" height="200" />
    <polygon points="560,120 610,120 624,760 546,760" />
    <circle cx="585" cy="90" r="22" />
    <rect x="562" y="230" width="46" height="28" />
    <rect x="562" y="300" width="46" height="28" />
    <rect x="562" y="370" width="46" height="28" />
    <rect x="820" y="460" width="60" height="240" />
    <rect x="900" y="400" width="50" height="300" />
    <rect x="970" y="510" width="66" height="190" />
    <rect x="1100" y="550" width="44" height="150" />
    <rect x="1170" y="480" width="52" height="220" />
    <rect x="1300" y="530" width="70" height="170" />
  </g>
</svg>
